<svg xmlns="http://www.w3.org/2000/svg" xmlns:xlink="http://www.w3.org/1999/xlink" preserveAspectRatio="xMidYMid" width="330" height="107" viewBox="0 0 330 107">
  <defs>
    <style>
      .cls-1 {
        fill: #231f20;
        fill-rule: evenodd;
      }
    </style>
  </defs>
  <path d="M327.991,72.647 L327.991,80.551 L327.509,80.551 L320.110,71.738 L320.110,76.687 C320.110,79.212 320.415,79.641 322.118,79.641 L322.118,80.150 L317.161,80.150 L317.161,79.641 C318.864,79.641 319.168,79.212 319.168,76.687 L319.168,72.647 C319.168,70.122 318.864,69.718 317.161,69.718 L317.161,69.214 L320.287,69.214 L327.051,77.194 L327.051,72.647 C327.051,70.122 326.747,69.718 325.042,69.718 L325.042,69.214 L330.000,69.214 L330.000,69.718 C328.297,69.718 327.991,70.122 327.991,72.647 ZM305.609,80.150 L305.609,79.641 C307.312,79.641 307.617,79.212 307.617,76.687 L307.617,72.647 C307.617,70.122 307.312,69.718 305.609,69.718 L305.609,69.214 L314.509,69.214 L314.710,72.245 L314.176,72.245 L314.049,71.738 C313.770,70.578 313.440,70.122 311.126,70.122 L309.422,70.122 L309.422,73.885 L309.575,73.885 C312.117,73.885 312.322,73.582 312.322,71.889 L312.829,71.889 L312.829,76.814 L312.322,76.814 C312.322,75.147 312.117,74.819 309.575,74.819 L309.422,74.819 L309.422,76.284 C309.422,78.808 309.727,79.212 311.430,79.212 L311.735,79.212 C314.049,79.212 314.381,78.784 314.683,77.598 L314.813,77.093 L315.320,77.093 L315.118,80.150 L305.609,80.150 ZM301.728,74.262 C303.177,74.994 303.712,76.132 303.712,77.118 C303.712,79.187 302.058,80.576 300.101,80.576 C298.778,80.576 297.710,79.945 297.251,79.641 C297.099,79.819 296.845,80.150 296.767,80.576 L296.311,80.576 L296.311,76.233 L296.819,76.233 C297.022,78.380 298.396,79.593 300.304,79.593 C301.397,79.593 302.261,78.985 302.261,77.901 C302.261,77.015 301.549,76.334 300.177,75.651 L298.447,74.769 C297.228,74.137 296.335,73.102 296.335,71.688 C296.335,70.098 297.686,68.810 299.515,68.810 C300.584,68.810 301.397,69.187 301.931,69.565 C302.058,69.413 302.261,69.187 302.312,68.785 L302.821,68.785 L302.821,73.052 L302.312,73.052 C302.160,71.536 301.472,69.743 299.642,69.743 C298.651,69.743 297.811,70.274 297.811,71.209 C297.811,72.092 298.471,72.572 300.025,73.380 L301.728,74.262 ZM287.970,79.641 C289.673,79.641 289.981,79.212 289.981,76.687 L289.981,72.647 C289.981,70.122 289.673,69.718 287.970,69.718 L287.970,69.214 L293.793,69.214 L293.793,69.718 C292.090,69.718 291.785,70.122 291.785,72.647 L291.785,76.687 C291.785,79.212 292.090,79.641 293.793,79.641 L293.793,80.150 L287.970,80.150 L287.970,79.641 ZM276.142,80.150 L276.142,79.641 C277.843,79.641 278.150,79.212 278.150,76.687 L278.150,72.647 C278.150,70.122 277.843,69.718 276.142,69.718 L276.142,69.214 L285.040,69.214 L285.243,72.245 L284.711,72.245 L284.582,71.738 C284.303,70.578 283.970,70.122 281.660,70.122 L279.955,70.122 L279.955,73.885 L280.107,73.885 C282.652,73.885 282.853,73.582 282.853,71.889 L283.362,71.889 L283.362,76.814 L282.853,76.814 C282.853,75.147 282.652,74.819 280.107,74.819 L279.955,74.819 L279.955,76.284 C279.955,78.808 280.260,79.212 281.964,79.212 L282.269,79.212 C284.582,79.212 284.913,78.784 285.218,77.598 L285.345,77.093 L285.854,77.093 L285.649,80.150 L276.142,80.150 ZM273.739,71.738 C273.432,70.578 273.126,70.122 270.788,70.122 L268.807,70.122 L268.807,73.885 L268.957,73.885 C271.503,73.885 271.704,73.582 271.704,71.889 L272.214,71.889 L272.214,76.814 L271.704,76.814 C271.704,75.147 271.503,74.819 268.957,74.819 L268.807,74.819 L268.807,76.687 C268.807,79.212 269.111,79.641 270.815,79.641 L270.815,80.150 L264.992,80.150 L264.992,79.641 C266.695,79.641 267.001,79.212 267.001,76.687 L267.001,72.647 C267.001,70.122 266.695,69.718 264.992,69.718 L264.992,69.214 L274.195,69.214 L274.400,72.245 L273.865,72.245 L273.739,71.738 ZM262.759,71.738 C262.453,70.578 262.149,70.122 259.809,70.122 L257.826,70.122 L257.826,73.885 L257.978,73.885 C260.520,73.885 260.723,73.582 260.723,71.889 L261.233,71.889 L261.233,76.814 L260.723,76.814 C260.723,75.147 260.520,74.819 257.978,74.819 L257.826,74.819 L257.826,76.687 C257.826,79.212 258.129,79.641 259.835,79.641 L259.835,80.150 L254.012,80.150 L254.012,79.641 C255.714,79.641 256.020,79.212 256.020,76.687 L256.020,72.647 C256.020,70.122 255.714,69.718 254.012,69.718 L254.012,69.214 L263.216,69.214 L263.420,72.245 L262.884,72.245 L262.759,71.738 ZM246.083,79.641 C247.785,79.641 248.091,79.212 248.091,76.687 L248.091,72.647 C248.091,70.122 247.785,69.718 246.083,69.718 L246.083,69.214 L251.906,69.214 L251.906,69.718 C250.203,69.718 249.896,70.122 249.896,72.647 L249.896,76.687 C249.896,79.212 250.203,79.641 251.906,79.641 L251.906,80.150 L246.083,80.150 L246.083,79.641 ZM239.596,79.616 C241.427,79.616 241.607,79.187 240.972,77.698 L240.462,76.537 L236.292,76.537 L235.785,77.698 C235.147,79.187 235.147,79.616 237.156,79.616 L237.156,80.150 L233.727,80.150 L232.350,80.150 L229.531,80.150 L224.495,73.507 L223.301,73.507 L223.301,76.664 C223.301,79.187 223.607,79.616 225.716,79.616 L225.716,80.150 L218.852,80.150 L218.852,79.616 C220.962,79.616 221.267,79.187 221.267,76.664 L221.267,68.455 C221.267,65.932 220.962,65.525 218.852,65.525 L218.852,64.996 L225.565,64.996 C229.097,64.996 231.030,66.915 231.030,69.262 C231.030,71.460 229.377,73.204 226.506,73.507 L228.996,76.410 C231.363,78.849 231.881,79.543 232.984,79.584 C233.979,79.476 234.262,79.015 234.968,77.420 L238.706,68.785 L239.062,68.785 L242.799,77.420 C243.640,79.314 243.945,79.616 245.290,79.616 L245.290,80.150 L239.596,80.150 L239.596,79.616 ZM228.768,69.262 C228.768,67.446 227.751,65.932 225.537,65.932 L223.301,65.932 L223.301,72.596 L225.537,72.596 C227.751,72.596 228.768,71.108 228.768,69.262 ZM238.471,71.738 L236.792,75.602 L240.152,75.602 L238.471,71.738 ZM202.749,79.641 C204.453,79.641 204.759,79.212 204.759,76.687 L204.759,71.964 L200.918,80.576 L200.564,80.576 L196.595,71.638 L196.595,76.687 C196.595,79.212 196.901,79.641 198.607,79.641 L198.607,80.150 L193.647,80.150 L193.647,79.641 C195.353,79.641 195.658,79.212 195.658,76.687 L195.658,72.647 C195.658,70.122 195.353,69.718 193.647,69.718 L193.647,69.214 L197.463,69.214 L201.250,77.648 L205.012,69.214 L208.572,69.214 L208.572,69.718 C206.868,69.718 206.539,70.122 206.539,72.647 L206.539,76.687 C206.539,79.212 206.868,79.641 208.572,79.641 L208.572,80.150 L202.749,80.150 L202.749,79.641 ZM182.126,80.150 L182.126,79.641 C183.829,79.641 184.133,79.212 184.133,76.687 L184.133,72.647 C184.133,70.122 183.829,69.718 182.126,69.718 L182.126,69.214 L187.949,69.214 L187.949,69.718 C186.246,69.718 185.940,70.122 185.940,72.647 L185.940,76.284 C185.940,78.808 186.246,79.212 187.949,79.212 L188.836,79.212 C191.177,79.212 191.483,78.784 191.789,77.598 L191.916,77.093 L192.450,77.093 L192.271,80.150 L182.126,80.150 ZM170.368,80.150 L170.368,79.641 C172.071,79.641 172.376,79.212 172.376,76.687 L172.376,72.647 C172.376,70.122 172.071,69.718 170.368,69.718 L170.368,69.214 L179.267,69.214 L179.471,72.245 L178.937,72.245 L178.809,71.738 C178.529,70.578 178.197,70.122 175.885,70.122 L174.183,70.122 L174.183,73.885 L174.335,73.885 C176.877,73.885 177.079,73.582 177.079,71.889 L177.588,71.889 L177.588,76.814 L177.079,76.814 C177.079,75.147 176.877,74.819 174.335,74.819 L174.183,74.819 L174.183,76.284 C174.183,78.808 174.488,79.212 176.190,79.212 L176.495,79.212 C178.809,79.212 179.139,78.784 179.444,77.598 L179.572,77.093 L180.081,77.093 L179.876,80.150 L170.368,80.150 ZM162.522,79.641 C164.224,79.641 164.529,79.212 164.529,76.687 L164.529,74.819 L158.757,74.819 L158.757,76.687 C158.757,79.212 159.062,79.641 160.765,79.641 L160.765,80.150 L154.943,80.150 L154.943,79.641 C156.645,79.641 156.952,79.212 156.952,76.687 L156.952,72.647 C156.952,70.122 156.645,69.718 154.943,69.718 L154.943,69.214 L160.765,69.214 L160.765,69.718 C159.062,69.718 158.757,70.122 158.757,72.647 L158.757,73.885 L164.529,73.885 L164.529,72.647 C164.529,70.122 164.224,69.718 162.522,69.718 L162.522,69.214 L168.343,69.214 L168.343,69.718 C166.665,69.718 166.334,70.122 166.334,72.647 L166.334,76.687 C166.334,79.212 166.665,79.641 168.343,79.641 L168.343,80.150 L162.522,80.150 L162.522,79.641 ZM143.423,80.150 L143.423,79.641 C145.126,79.641 145.432,79.212 145.432,76.687 L145.432,72.647 C145.432,70.122 145.126,69.718 143.423,69.718 L143.423,69.214 L149.244,69.214 L149.244,69.718 C147.542,69.718 147.237,70.122 147.237,72.647 L147.237,76.284 C147.237,78.808 147.542,79.212 149.244,79.212 L150.135,79.212 C152.474,79.212 152.780,78.784 153.085,77.598 L153.213,77.093 L153.746,77.093 L153.567,80.150 L143.423,80.150 ZM138.459,95.612 C140.495,95.612 142.164,97.140 142.164,99.018 C142.164,100.895 140.495,102.444 138.459,102.444 C137.064,102.444 134.753,101.533 134.753,97.287 C134.753,94.188 136.128,90.836 138.973,90.836 C140.477,90.836 141.669,91.621 141.669,92.221 C141.669,92.531 141.377,92.696 141.174,92.696 C140.605,92.696 140.348,91.420 138.973,91.420 C136.936,91.420 136.385,94.134 136.275,96.687 C136.715,96.085 137.413,95.612 138.459,95.612 ZM136.256,97.688 C136.348,101.259 137.798,101.717 138.459,101.717 C140.074,101.717 140.641,100.350 140.641,99.000 C140.641,97.688 140.074,96.338 138.459,96.338 C137.376,96.338 136.477,96.923 136.256,97.688 ZM135.316,79.641 C137.019,79.641 137.325,79.212 137.325,76.687 L137.325,72.647 C137.325,70.122 137.019,69.718 135.316,69.718 L135.316,69.214 L141.138,69.214 L141.138,69.718 C139.436,69.718 139.129,70.122 139.129,72.647 L139.129,76.687 C139.129,79.212 139.436,79.641 141.138,79.641 L141.138,80.150 L135.316,80.150 L135.316,79.641 ZM133.267,67.723 L129.148,80.576 L128.819,80.576 L125.258,69.389 L121.672,80.576 L121.317,80.576 L117.222,67.723 C116.612,65.855 116.308,65.525 114.173,65.525 L114.173,64.996 L121.317,64.996 L121.317,65.525 C119.181,65.525 118.876,66.030 119.309,67.446 L122.079,76.157 L125.640,64.996 L126.019,64.996 L129.580,76.132 L132.351,67.446 C132.758,66.055 132.377,65.525 130.572,65.525 L130.572,64.996 L136.294,64.996 L136.294,65.525 C134.156,65.525 133.801,66.030 133.267,67.723 ZM109.218,101.654 C110.616,101.654 110.867,101.246 110.867,98.854 L110.867,95.604 C110.867,93.210 110.616,92.827 109.218,92.827 L109.218,92.348 L113.819,92.348 L113.819,92.827 C112.421,92.827 112.170,93.210 112.170,95.604 L112.170,98.854 C112.170,101.246 112.421,101.654 113.819,101.654 L113.819,102.135 L109.218,102.135 L109.218,101.654 ZM99.722,79.641 C101.425,79.641 101.730,79.212 101.730,76.687 L101.730,74.819 L95.959,74.819 L95.959,76.687 C95.959,79.212 96.263,79.641 97.966,79.641 L97.966,80.150 L92.145,80.150 L92.145,79.641 C93.849,79.641 94.153,79.212 94.153,76.687 L94.153,72.647 C94.153,70.122 93.849,69.718 92.145,69.718 L92.145,69.214 L97.966,69.214 L97.966,69.718 C96.263,69.718 95.959,70.122 95.959,72.647 L95.959,73.885 L101.730,73.885 L101.730,72.647 C101.730,70.122 101.425,69.718 99.722,69.718 L99.722,69.214 L105.545,69.214 L105.545,69.718 C103.865,69.718 103.535,70.122 103.535,72.647 L103.535,76.687 C103.535,79.212 103.865,79.641 105.545,79.641 L105.545,80.150 L99.722,80.150 L99.722,79.641 ZM94.810,97.069 C94.810,97.360 94.627,97.852 94.003,97.852 C93.599,97.852 93.288,97.523 93.288,97.123 C93.288,96.521 92.957,96.338 92.627,96.338 C91.654,96.338 90.865,97.579 90.865,99.255 C90.865,100.714 91.581,101.680 93.086,101.680 C93.691,101.680 94.444,101.406 95.048,100.841 L95.361,101.242 C94.664,101.987 93.674,102.444 92.627,102.444 C90.590,102.444 89.380,101.077 89.380,99.255 C89.380,97.105 91.158,95.755 92.627,95.755 C94.149,95.755 94.810,96.393 94.810,97.069 ZM88.817,78.910 C88.054,79.844 86.681,80.576 85.462,80.576 C82.283,80.576 79.714,77.926 79.714,74.668 C79.714,71.460 82.283,68.785 85.462,68.785 C86.681,68.785 88.054,69.490 88.817,70.451 C88.995,70.248 89.174,69.617 89.274,69.214 L89.758,69.214 L89.758,73.582 L89.250,73.582 C88.766,71.232 87.420,69.743 85.462,69.743 C82.614,69.743 81.774,72.545 81.774,74.668 C81.774,76.814 82.614,79.593 85.462,79.593 C87.420,79.593 88.766,78.103 89.250,75.754 L89.758,75.754 L89.758,80.150 L89.274,80.150 C89.174,79.693 88.995,79.086 88.817,78.910 ZM82.221,97.069 C82.715,96.449 83.560,95.755 84.770,95.755 C86.421,95.755 87.155,96.923 87.155,98.470 L87.155,99.619 C87.155,101.441 87.376,101.752 88.606,101.752 L88.606,102.135 L84.404,102.135 L84.404,101.752 C85.597,101.752 85.853,101.441 85.853,99.619 L85.853,98.562 C85.853,97.378 85.430,96.613 84.330,96.613 C83.321,96.613 82.221,97.433 82.221,98.434 L82.221,99.619 C82.221,101.495 82.369,101.752 83.505,101.752 L83.505,102.135 L79.468,102.135 L79.468,101.752 C80.678,101.752 80.917,101.441 80.917,99.619 L80.917,98.709 C80.917,96.885 80.678,96.594 79.468,96.594 L79.468,96.212 L81.909,95.755 C82.001,95.937 82.164,96.687 82.221,97.069 ZM74.220,101.752 C75.430,101.752 75.669,101.441 75.669,99.619 L75.669,98.709 C75.669,96.885 75.430,96.594 74.220,96.594 L74.220,96.212 L76.971,95.755 L76.971,99.619 C76.971,101.441 77.192,101.752 78.420,101.752 L78.420,102.135 L74.220,102.135 L74.220,101.752 ZM77.119,93.152 C77.119,93.605 76.751,93.972 76.310,93.972 C75.870,93.972 75.504,93.605 75.504,93.152 C75.504,92.715 75.870,92.348 76.310,92.348 C76.751,92.348 77.119,92.715 77.119,93.152 ZM71.907,79.641 C73.609,79.641 73.916,79.212 73.916,76.687 L73.916,72.647 C73.916,70.122 73.609,69.718 71.907,69.718 L71.907,69.214 L77.729,69.214 L77.729,69.718 C76.025,69.718 75.720,70.122 75.720,72.647 L75.720,76.687 C75.720,79.212 76.025,79.641 77.729,79.641 L77.729,80.150 L71.907,80.150 L71.907,79.641 ZM72.101,94.808 L71.717,94.808 C71.587,93.351 71.038,91.621 68.910,91.621 C67.882,91.621 67.128,92.330 67.128,93.241 C67.128,94.188 67.771,94.681 69.350,95.501 L71.110,96.393 C72.524,97.105 73.019,98.161 73.019,99.163 C73.019,101.151 71.424,102.444 69.532,102.444 C68.139,102.444 67.259,101.717 66.671,101.587 C66.451,101.769 66.231,102.043 66.138,102.444 L65.772,102.444 L65.772,98.434 L66.138,98.434 C66.138,98.434 66.175,101.717 69.532,101.717 C70.836,101.717 71.827,100.877 71.827,99.711 C71.827,98.872 70.982,98.161 69.715,97.507 L67.955,96.613 C66.890,96.066 65.918,94.990 65.918,93.605 C65.918,92.093 67.184,90.890 68.964,90.890 C70.047,90.890 70.652,91.237 71.202,91.637 C71.424,91.455 71.642,91.184 71.735,90.801 L72.101,90.801 L72.101,94.808 ZM63.674,75.450 L62.965,75.450 L62.965,76.687 C62.965,79.212 63.269,79.641 64.971,79.641 L64.971,80.150 L59.150,80.150 L59.150,79.641 C60.853,79.641 61.158,79.212 61.158,76.687 L61.158,72.647 C61.158,70.122 60.853,69.718 59.150,69.718 L59.150,69.214 L64.413,69.214 C67.033,69.214 68.480,70.550 68.480,72.343 C68.480,73.885 67.312,75.147 65.405,75.400 L66.982,77.294 C67.998,78.482 69.168,79.466 70.387,79.641 L70.387,80.150 L67.133,80.150 L63.674,75.450 ZM66.593,72.343 C66.593,71.133 65.931,70.122 64.508,70.122 L63.058,70.122 L63.058,74.517 L64.508,74.517 C65.931,74.517 66.593,73.532 66.593,72.343 ZM59.233,97.287 C58.425,97.342 58.884,96.466 58.132,96.466 C57.984,96.466 57.765,96.559 57.563,96.758 C57.893,97.159 58.095,97.688 58.095,98.235 C58.095,99.584 56.903,100.549 55.710,100.714 C54.902,100.803 53.654,100.987 53.654,101.478 C53.654,101.971 54.719,102.116 55.325,102.170 C57.857,102.371 58.664,103.446 58.664,104.558 C58.664,106.070 57.215,107.001 55.416,107.001 C52.315,107.001 51.104,104.740 53.361,103.575 L53.692,103.775 C52.169,105.470 53.967,106.289 55.416,106.289 C56.554,106.289 57.691,105.743 57.691,104.885 C57.691,104.028 56.774,103.756 55.233,103.610 C53.729,103.463 52.628,103.010 52.628,101.916 C52.628,101.259 53.214,100.749 54.169,100.458 C53.252,100.020 52.628,99.219 52.628,98.235 C52.628,96.868 53.857,95.755 55.361,95.755 C56.095,95.755 56.755,96.010 57.251,96.449 C57.581,96.049 58.241,95.755 58.627,95.755 C59.893,95.755 59.966,97.253 59.233,97.287 ZM55.361,96.338 C54.462,96.338 54.021,97.159 54.021,98.235 C54.021,99.290 54.462,100.110 55.361,100.110 C56.260,100.110 56.682,99.290 56.682,98.235 C56.682,97.159 56.260,96.338 55.361,96.338 ZM51.480,80.150 L46.090,80.150 L46.090,79.641 C47.794,79.641 48.098,79.212 48.098,76.687 L48.098,72.647 C48.098,70.122 47.794,69.718 46.090,69.718 L46.090,69.214 L51.480,69.214 C55.802,69.214 57.683,71.688 57.683,74.668 C57.683,77.673 55.802,80.150 51.480,80.150 ZM51.652,70.122 C51.498,70.122 50.431,70.122 49.999,70.122 L49.999,77.294 C49.999,78.936 50.175,79.212 51.447,79.212 L51.652,79.212 C55.008,79.212 55.669,76.687 55.669,74.668 C55.669,72.673 55.008,70.122 51.652,70.122 ZM46.454,13.595 L43.900,11.104 L37.244,17.705 L34.347,14.825 L34.346,11.578 L32.674,13.239 L32.674,19.160 L30.464,21.354 L45.621,36.413 L38.496,43.403 L23.336,28.389 L8.174,43.408 L1.047,36.420 L16.208,21.360 L13.995,19.165 L13.995,13.245 L12.323,11.585 L12.323,14.831 L9.424,17.712 L2.770,11.108 L0.221,13.595 L0.044,12.278 C0.040,12.253 0.005,11.981 0.004,11.522 C0.000,9.906 0.447,5.901 4.268,2.237 C5.969,0.595 7.768,0.004 9.344,0.009 C12.392,0.028 14.512,2.037 14.584,2.092 L22.333,9.782 L20.533,11.570 L23.332,14.347 L26.137,11.563 L24.338,9.776 L32.102,2.069 C32.160,2.030 34.278,0.022 37.326,0.004 C38.901,-0.001 40.699,0.589 42.402,2.231 C46.222,5.895 46.669,9.901 46.665,11.514 C46.665,11.973 46.630,12.244 46.627,12.268 L46.454,13.595 ZM41.471,3.186 C39.975,1.759 38.576,1.341 37.326,1.335 C35.518,1.328 33.965,2.300 33.327,2.790 C33.114,2.951 33.018,3.042 33.032,3.026 L26.234,9.776 L27.558,11.093 L28.032,11.563 L23.334,16.229 L18.637,11.570 L20.437,9.782 L13.654,3.049 C13.653,3.050 13.557,2.957 13.343,2.796 C13.130,2.636 12.817,2.417 12.425,2.199 C11.640,1.762 10.551,1.339 9.344,1.341 C8.093,1.346 6.694,1.766 5.199,3.194 C2.328,5.951 1.576,8.862 1.395,10.584 L2.777,9.234 L9.423,15.830 L10.983,14.282 L10.983,8.372 L15.336,12.696 L15.336,18.614 L18.103,21.359 L2.949,36.413 L8.169,41.533 L23.335,26.508 L38.499,41.528 L43.722,36.408 L28.567,21.352 L31.333,18.609 L31.333,12.688 L35.688,8.365 L35.688,14.274 L37.245,15.823 L43.892,9.228 L45.272,10.576 C45.093,8.854 44.340,5.944 41.471,3.186 ZM13.529,68.329 L12.994,68.329 L12.867,67.824 C12.536,66.512 12.257,65.932 9.945,65.932 L5.749,65.932 L5.749,71.662 L7.020,71.662 C9.562,71.662 9.969,71.359 9.969,69.236 L10.503,69.236 L10.503,75.021 L9.969,75.021 C9.969,72.901 9.562,72.596 7.020,72.596 L5.749,72.596 L5.749,76.664 C5.749,79.187 6.054,79.616 8.165,79.616 L8.165,80.150 L1.299,80.150 L1.299,79.616 C3.409,79.616 3.714,79.187 3.714,76.664 L3.714,68.455 C3.714,65.932 3.409,65.525 1.299,65.525 L1.299,64.996 L13.325,64.996 L13.529,68.329 ZM9.775,93.933 C9.775,94.882 9.189,95.700 8.345,96.193 C9.758,96.632 10.692,97.759 10.692,99.072 C10.692,100.768 9.300,102.135 6.748,102.135 L1.299,102.135 L1.299,101.752 C2.822,101.752 3.042,101.441 3.042,99.619 L3.042,93.696 C3.042,91.875 2.822,91.583 1.299,91.583 L1.299,91.200 L6.235,91.200 C8.564,91.200 9.775,92.420 9.775,93.933 ZM4.510,99.347 C4.510,101.169 4.730,101.460 6.253,101.460 L6.731,101.460 C8.326,101.460 9.080,100.385 9.080,99.072 C9.080,97.744 8.326,96.650 6.731,96.650 L4.510,96.650 L4.510,99.347 ZM4.510,91.875 L4.510,95.975 L6.143,95.975 C7.520,95.975 8.162,95.064 8.162,93.933 C8.162,92.804 7.520,91.875 6.143,91.875 L4.510,91.875 ZM15.857,98.252 C15.857,96.885 15.674,96.338 14.629,96.338 C14.206,96.338 13.582,96.632 13.582,97.214 C13.582,97.579 13.307,97.852 12.959,97.852 C12.592,97.852 12.316,97.579 12.316,97.214 C12.316,96.338 13.472,95.755 14.646,95.755 C16.427,95.755 17.161,96.504 17.161,98.235 L17.161,100.987 C17.161,101.441 17.308,101.698 17.581,101.698 C17.766,101.698 17.968,101.551 18.096,101.423 L18.352,101.769 C18.003,102.135 17.546,102.334 17.141,102.334 C16.427,102.334 15.985,101.934 15.893,101.279 C14.995,102.079 14.334,102.371 13.600,102.371 C12.702,102.371 11.950,101.807 11.950,100.841 C11.950,99.290 13.765,98.618 15.857,98.252 ZM14.189,101.551 C14.573,101.551 15.013,101.423 15.857,100.677 L15.857,98.818 C14.114,99.219 13.325,99.819 13.325,100.621 C13.325,101.205 13.729,101.551 14.189,101.551 ZM25.140,79.641 L25.140,80.150 L21.885,80.150 L18.428,75.450 L17.715,75.450 L17.715,76.687 C17.715,79.212 18.019,79.641 19.725,79.641 L19.725,80.150 L13.902,80.150 L13.902,79.641 C15.605,79.641 15.911,79.212 15.911,76.687 L15.911,72.647 C15.911,70.122 15.605,69.718 13.902,69.718 L13.902,69.214 L19.165,69.214 C21.784,69.214 23.233,70.550 23.233,72.343 C23.233,73.885 22.063,75.147 20.156,75.400 L21.733,77.294 C22.750,78.482 23.919,79.466 25.140,79.641 ZM21.250,72.343 C21.250,71.133 20.588,70.122 19.165,70.122 L17.715,70.122 L17.715,74.517 L19.165,74.517 C20.588,74.517 21.250,73.532 21.250,72.343 ZM21.773,97.069 C22.268,96.449 23.112,95.755 24.322,95.755 C25.974,95.755 26.707,96.923 26.707,98.470 L26.707,99.619 C26.707,101.441 26.927,101.752 28.156,101.752 L28.156,102.135 L23.955,102.135 L23.955,101.752 C25.149,101.752 25.406,101.441 25.406,99.619 L25.406,98.562 C25.406,97.378 24.982,96.613 23.882,96.613 C22.873,96.613 21.773,97.433 21.773,98.434 L21.773,99.619 C21.773,101.495 21.919,101.752 23.057,101.752 L23.057,102.135 L19.020,102.135 L19.020,101.752 C20.232,101.752 20.470,101.441 20.470,99.619 L20.470,98.709 C20.470,96.885 20.232,96.594 19.020,96.594 L19.020,96.212 L21.461,95.755 C21.552,95.937 21.718,96.687 21.773,97.069 ZM32.144,79.641 L32.144,80.150 L26.323,80.150 L26.323,79.641 C28.025,79.641 28.331,79.212 28.331,76.687 L28.331,72.647 C28.331,70.122 28.025,69.718 26.323,69.718 L26.323,69.214 L32.144,69.214 L32.144,69.718 C30.440,69.718 30.136,70.122 30.136,72.647 L30.136,76.687 C30.136,79.212 30.440,79.641 32.144,79.641 ZM31.362,98.635 L32.903,97.396 C33.509,96.904 33.252,96.431 32.353,96.431 L32.353,96.066 L36.022,96.066 L36.022,96.431 C36.022,96.431 34.812,96.521 34.095,97.085 L32.536,98.362 L35.490,101.316 C35.802,101.623 36.335,101.752 36.571,101.752 L36.571,102.135 L34.537,102.135 L31.527,99.163 L31.362,99.290 L31.362,99.619 C31.362,101.441 31.601,101.752 32.812,101.752 L32.812,102.135 L28.610,102.135 L28.610,101.752 C29.838,101.752 30.059,101.441 30.059,99.619 L30.059,93.861 C30.059,92.039 29.838,91.729 28.610,91.729 L28.610,91.348 L31.362,90.890 L31.362,98.635 ZM39.871,99.619 C39.871,101.441 40.093,101.752 41.322,101.752 L41.322,102.135 L37.120,102.135 L37.120,101.752 C38.331,101.752 38.569,101.441 38.569,99.619 L38.569,98.709 C38.569,96.885 38.331,96.594 37.120,96.594 L37.120,96.212 L39.871,95.755 L39.871,99.619 ZM40.019,93.152 C40.019,93.605 39.653,93.972 39.211,93.972 C38.772,93.972 38.403,93.605 38.403,93.152 C38.403,92.715 38.772,92.348 39.211,92.348 C39.653,92.348 40.019,92.715 40.019,93.152 ZM40.083,79.212 L40.388,79.212 C42.701,79.212 43.033,78.784 43.337,77.598 L43.464,77.093 L43.974,77.093 L43.770,80.150 L34.261,80.150 L34.261,79.641 C35.963,79.641 36.269,79.212 36.269,76.687 L36.269,72.647 C36.269,70.122 35.963,69.718 34.261,69.718 L34.261,69.214 L43.160,69.214 L43.363,72.245 L42.829,72.245 L42.701,71.738 C42.422,70.578 42.090,70.122 39.778,70.122 L38.075,70.122 L38.075,73.885 L38.227,73.885 C40.769,73.885 40.973,73.582 40.973,71.889 L41.481,71.889 L41.481,76.814 L40.973,76.814 C40.973,75.147 40.769,74.819 38.227,74.819 L38.075,74.819 L38.075,76.284 C38.075,78.808 38.380,79.212 40.083,79.212 ZM45.120,97.069 C45.615,96.449 46.459,95.755 47.670,95.755 C49.321,95.755 50.055,96.923 50.055,98.470 L50.055,99.619 C50.055,101.441 50.276,101.752 51.505,101.752 L51.505,102.135 L47.302,102.135 L47.302,101.752 C48.496,101.752 48.754,101.441 48.754,99.619 L48.754,98.562 C48.754,97.378 48.331,96.613 47.230,96.613 C46.221,96.613 45.120,97.433 45.120,98.434 L45.120,99.619 C45.120,101.495 45.268,101.752 46.404,101.752 L46.404,102.135 L42.367,102.135 L42.367,101.752 C43.579,101.752 43.817,101.441 43.817,99.619 L43.817,98.709 C43.817,96.885 43.579,96.594 42.367,96.594 L42.367,96.212 L44.808,95.755 C44.900,95.937 45.064,96.687 45.120,97.069 ZM99.985,95.755 C101.620,95.755 102.920,97.069 102.480,98.635 L98.058,98.635 C97.838,100.350 98.554,101.680 100.444,101.680 C101.050,101.680 101.931,101.332 102.462,100.841 L102.794,101.242 C102.151,101.916 101.032,102.444 99.985,102.444 C97.968,102.444 96.592,100.932 96.592,99.089 C96.592,97.159 98.278,95.755 99.985,95.755 ZM101.216,97.962 C101.417,97.378 101.104,96.485 99.894,96.485 C99.105,96.485 98.426,97.069 98.170,97.962 L101.216,97.962 ZM116.174,93.515 C116.174,92.003 117.568,90.890 119.238,90.890 C120.925,90.890 122.319,92.021 122.319,93.369 C122.319,94.644 121.200,95.337 119.971,95.902 C121.422,96.632 122.943,97.378 122.943,99.255 C122.943,101.077 121.272,102.444 119.238,102.444 C117.201,102.444 115.551,101.096 115.551,99.401 C115.551,97.523 116.889,96.721 118.228,96.157 C117.128,95.483 116.174,94.754 116.174,93.515 ZM120.834,93.222 C120.834,92.513 120.411,91.602 119.238,91.602 C118.063,91.602 117.660,92.513 117.660,93.222 C117.660,94.409 118.374,95.047 119.402,95.612 C120.301,95.120 120.834,94.224 120.834,93.222 ZM117.018,99.401 C117.018,100.513 117.714,101.733 119.238,101.733 C120.760,101.733 121.458,100.513 121.458,99.546 C121.458,98.053 120.210,97.267 118.817,96.485 C117.751,97.085 117.018,98.071 117.018,99.401 ZM125.687,93.515 C125.687,92.003 127.080,90.890 128.749,90.890 C130.437,90.890 131.832,92.021 131.832,93.369 C131.832,94.644 130.713,95.337 129.484,95.902 C130.933,96.632 132.455,97.378 132.455,99.255 C132.455,101.077 130.786,102.444 128.749,102.444 C126.713,102.444 125.061,101.096 125.061,99.401 C125.061,97.523 126.400,96.721 127.740,96.157 C126.639,95.483 125.687,94.754 125.687,93.515 ZM130.348,93.222 C130.348,92.513 129.923,91.602 128.749,91.602 C127.575,91.602 127.171,92.513 127.171,93.222 C127.171,94.409 127.887,95.047 128.915,95.612 C129.814,95.120 130.348,94.224 130.348,93.222 ZM126.529,99.401 C126.529,100.513 127.226,101.733 128.749,101.733 C130.272,101.733 130.968,100.513 130.968,99.546 C130.968,98.053 129.722,97.267 128.327,96.485 C127.264,97.085 126.529,98.071 126.529,99.401 Z" class="cls-1"/>
</svg>
