<svg xmlns="http://www.w3.org/2000/svg" viewBox="0 0 86 78"><defs><style>.a{fill:#4c3440;}</style></defs><title>turn-mobile</title><path class="a" d="M5,0A5,5,0,0,0,0,5V73a5,5,0,0,0,5,5H81a5,5,0,0,0,5-5V41a5,5,0,0,0-5-5H42V5a5,5,0,0,0-5-5H5ZM5,2H37a3,3,0,0,1,3,3V6H2V5A3,3,0,0,1,5,2ZM2,8H40V64H2V8ZM42,38H78V76H40.88A4.81,4.81,0,0,0,42,73V38Zm38,0h1a3,3,0,0,1,3,3V73a3,3,0,0,1-3,3H80V38ZM2,66H40v7a3,3,0,0,1-1.72,2.72,1,1,0,0,0-.34.28H5a3,3,0,0,1-3-3V66Zm15.75,4A1,1,0,1,0,18,72H24a1,1,0,1,0,0-2H17.75Z"/><path class="a" d="M57.12,7.16A22.33,22.33,0,0,1,77.21,29.38a0.84,0.84,0,1,0,1.69,0A24,24,0,0,0,57.17,5.47,5.56,5.56,0,0,0,59,2.58,32.91,32.91,0,0,1,47.89,5.8c4.39,1.15,8,2.32,10.74,4.36A4.81,4.81,0,0,0,57.12,7.16Z"/></svg>